<svg width="262" height="28" viewBox="0 0 262 28" fill="none" xmlns="http://www.w3.org/2000/svg">
<path d="M4.46184 1.41526V18.2331H10.1989V21.9513H0.512207V1.41526H4.46184Z" fill="white"/>
<path d="M15.7465 14.3718C15.7465 13.1896 15.9291 12.1123 16.2943 11.1398C16.6787 10.1483 17.1976 9.2998 17.8511 8.59429C18.5045 7.88878 19.2637 7.34535 20.1286 6.96399C21.0127 6.56357 21.9545 6.36336 22.9539 6.36336C24.7797 6.36336 26.3846 7.0498 27.7684 8.42268V6.76378H31.6027V21.9513H27.7684V20.3496C27.0957 21.017 26.3846 21.5223 25.635 21.8655C24.8855 22.1897 24.0206 22.3517 23.0404 22.3517C22.0602 22.3517 21.128 22.1611 20.2439 21.7797C19.379 21.3793 18.6102 20.8263 17.9376 20.1208C17.2649 19.4153 16.7267 18.5763 16.3231 17.6038C15.9387 16.6123 15.7465 15.535 15.7465 14.3718ZM23.7323 18.8623C24.3281 18.8623 24.8758 18.7574 25.3756 18.5477C25.8945 18.338 26.3365 18.0329 26.7017 17.6324C27.0861 17.232 27.384 16.7553 27.5954 16.2024C27.8261 15.6303 27.9414 15.0011 27.9414 14.3146C27.9414 13.6473 27.8357 13.0466 27.6242 12.5127C27.4128 11.9598 27.1149 11.4926 26.7305 11.1112C26.3654 10.7108 25.9233 10.4057 25.4044 10.196C24.9047 9.96718 24.3473 9.85277 23.7323 9.85277C23.098 9.85277 22.5214 9.97671 22.0025 10.2246C21.5028 10.4534 21.0704 10.768 20.7052 11.1685C20.3592 11.5689 20.0902 12.0456 19.898 12.5985C19.7058 13.1324 19.6097 13.714 19.6097 14.3432C19.6097 14.9915 19.7058 15.5922 19.898 16.1452C20.1094 16.6981 20.3977 17.1748 20.7628 17.5752C21.128 17.9757 21.5605 18.2903 22.0602 18.5191C22.5791 18.7479 23.1365 18.8623 23.7323 18.8623Z" fill="white"/>
<path d="M39.2202 21.9513V6.76378H43.0545V8.30828C43.7849 7.69811 44.5056 7.22141 45.2167 6.87819C45.9278 6.53497 46.7158 6.36336 47.5807 6.36336C48.2919 6.36336 48.9645 6.4873 49.5988 6.73518C50.233 6.96399 50.7904 7.30721 51.2709 7.76484C51.7514 8.2034 52.1262 8.74684 52.3952 9.39514C52.6835 10.0244 52.8277 10.749 52.8277 11.5689V21.9513H48.9934V14.7723C48.9934 14.0286 48.9645 13.3517 48.9069 12.7415C48.8684 12.1314 48.7531 11.6165 48.5609 11.1971C48.388 10.7585 48.1285 10.4248 47.7825 10.196C47.4366 9.96718 46.9753 9.85277 46.3987 9.85277C45.457 9.85277 44.6593 10.2341 44.0059 10.9968C43.3716 11.7596 43.0545 12.9132 43.0545 14.4577V21.9513H39.2202Z" fill="white"/>
<path d="M59.476 14.3718C59.476 13.1896 59.6586 12.1123 60.0238 11.1398C60.4082 10.1483 60.9271 9.2998 61.5806 8.59429C62.234 7.88878 62.9932 7.34535 63.8581 6.96399C64.7422 6.56357 65.684 6.36336 66.6834 6.36336C68.5092 6.36336 70.1141 7.0498 71.4979 8.42268V0.900424H75.3322V21.9513H71.4979V20.3496C70.8252 21.017 70.1141 21.5223 69.3645 21.8655C68.6149 22.1897 67.7501 22.3517 66.7699 22.3517C65.7897 22.3517 64.8575 22.1611 63.9734 21.7797C63.1085 21.3793 62.3397 20.8263 61.6671 20.1208C60.9944 19.4153 60.4562 18.5763 60.0526 17.6038C59.6682 16.6123 59.476 15.535 59.476 14.3718ZM67.4618 18.8623C68.0576 18.8623 68.6053 18.7574 69.105 18.5477C69.624 18.338 70.066 18.0329 70.4312 17.6324C70.8156 17.232 71.1135 16.7553 71.3249 16.2024C71.5555 15.6303 71.6709 15.0011 71.6709 14.3146C71.6709 13.6473 71.5652 13.0466 71.3537 12.5127C71.1423 11.9598 70.8444 11.4926 70.46 11.1112C70.0949 10.7108 69.6528 10.4057 69.1339 10.196C68.6342 9.96718 68.0768 9.85277 67.4618 9.85277C66.8275 9.85277 66.2509 9.97671 65.732 10.2246C65.2323 10.4534 64.7999 10.768 64.4347 11.1685C64.0887 11.5689 63.8197 12.0456 63.6275 12.5985C63.4353 13.1324 63.3392 13.714 63.3392 14.3432C63.3392 14.9915 63.4353 15.5922 63.6275 16.1452C63.8389 16.6981 64.1272 17.1748 64.4923 17.5752C64.8575 17.9757 65.29 18.2903 65.7897 18.5191C66.3086 18.7479 66.866 18.8623 67.4618 18.8623Z" fill="white"/>
<path d="M81.3346 6.76378H85.2554L89.1185 16.7458L92.9817 6.76378H96.8736L90.5023 21.9513H87.7347L81.3346 6.76378Z" fill="white"/>
<path d="M102.887 21.9513V6.76378H106.721V21.9513H102.887ZM102.339 2.81674C102.339 2.14937 102.579 1.5964 103.06 1.15784C103.54 0.71928 104.117 0.5 104.789 0.5C105.481 0.5 106.058 0.747882 106.519 1.24365C107 1.73941 107.24 2.33051 107.24 3.01695C107.24 3.68433 107 4.25636 106.519 4.73306C106.039 5.20975 105.462 5.4481 104.789 5.4481C104.078 5.4481 103.492 5.19069 103.031 4.67585C102.569 4.14196 102.339 3.52225 102.339 2.81674Z" fill="white"/>
<path d="M117.779 0.900424V21.9513H113.945V0.900424H117.779Z" fill="white"/>
<path d="M128.453 0.900424V21.9513H124.619V0.900424H128.453Z" fill="white"/>
<path d="M134.889 14.3432C134.889 13.3136 135.071 12.3221 135.436 11.3687C135.802 10.3962 136.33 9.53815 137.022 8.79451C137.714 8.05086 138.55 7.45976 139.53 7.0212C140.51 6.58264 141.615 6.36336 142.846 6.36336C144.056 6.36336 145.161 6.5731 146.161 6.9926C147.16 7.39302 148.016 7.95552 148.727 8.6801C149.438 9.40468 149.986 10.2723 150.37 11.2829C150.774 12.2935 150.975 13.3994 150.975 14.6007C150.975 14.7723 150.975 14.9153 150.975 15.0297C150.975 15.1441 150.966 15.2871 150.947 15.4587H138.608C138.8 16.6028 139.29 17.4799 140.078 18.0901C140.866 18.6812 141.808 18.9767 142.903 18.9767C143.826 18.9767 144.604 18.8337 145.238 18.5477C145.873 18.2617 146.516 17.8422 147.17 17.2892L149.909 19.5488C149.563 19.9301 149.159 20.2924 148.698 20.6356C148.237 20.9598 147.718 21.2553 147.141 21.5223C146.565 21.7702 145.921 21.9704 145.21 22.1229C144.518 22.2755 143.749 22.3517 142.903 22.3517C141.692 22.3517 140.587 22.142 139.588 21.7225C138.608 21.303 137.762 20.7405 137.051 20.035C136.359 19.3104 135.821 18.4619 135.436 17.4894C135.071 16.4979 134.889 15.4492 134.889 14.3432ZM138.781 12.4555H147.112C146.843 11.5593 146.334 10.8634 145.584 10.3676C144.835 9.85277 143.941 9.59535 142.903 9.59535C141.942 9.59535 141.106 9.8337 140.395 10.3104C139.703 10.768 139.165 11.4831 138.781 12.4555Z" fill="white"/>
<path d="M171.653 0.928955C172.672 0.928955 173.604 1.01476 174.449 1.18637C175.314 1.35798 176.102 1.6154 176.813 1.95862C177.544 2.28277 178.217 2.68319 178.832 3.15989C179.447 3.61752 180.033 4.15142 180.59 4.76159L177.823 7.47875C176.938 6.5635 175.997 5.86752 174.997 5.39083C174.017 4.91413 172.912 4.67578 171.682 4.67578C170.644 4.67578 169.683 4.86646 168.799 5.24782C167.934 5.61011 167.184 6.10587 166.55 6.73511C165.916 7.36435 165.416 8.09846 165.051 8.93744C164.705 9.77643 164.532 10.6726 164.532 11.626C164.532 12.6175 164.724 13.5519 165.109 14.429C165.493 15.287 166.012 16.0402 166.666 16.6885C167.338 17.3178 168.126 17.8135 169.03 18.1758C169.933 18.5381 170.903 18.7192 171.941 18.7192C173.325 18.7192 174.478 18.4428 175.401 17.8898C176.323 17.3178 177.063 16.4311 177.621 15.2298H171.624V11.5116H182.06V11.5402C182.06 13.1991 181.811 14.7055 181.311 16.0593C180.83 17.394 180.138 18.5381 179.235 19.4915C178.351 20.4449 177.275 21.179 176.006 21.6938C174.738 22.2086 173.325 22.4661 171.768 22.4661C170.039 22.4661 168.482 22.1705 167.098 21.5794C165.714 20.9883 164.532 20.197 163.552 19.2055C162.591 18.2139 161.851 17.0603 161.332 15.7447C160.813 14.4099 160.554 13.018 160.554 11.5688C160.554 10.1196 160.823 8.7563 161.361 7.47875C161.899 6.18214 162.658 5.04761 163.638 4.07515C164.619 3.10269 165.791 2.33997 167.156 1.78701C168.52 1.21497 170.019 0.928955 171.653 0.928955Z" fill="#264EB4"/>
<path d="M189.004 21.9512V6.76371H192.319V8.68003C192.684 7.87918 193.155 7.29761 193.732 6.93532C194.308 6.55396 194.914 6.36329 195.548 6.36329C195.933 6.36329 196.259 6.41095 196.528 6.50629C196.797 6.58257 197.028 6.66837 197.22 6.76371L196.038 10.0243C195.884 9.94804 195.711 9.8813 195.519 9.8241C195.327 9.74782 195.125 9.70969 194.914 9.70969C194.318 9.70969 193.818 10.0529 193.415 10.7394C193.03 11.4258 192.838 12.5317 192.838 14.0572V21.9512H189.004Z" fill="#264EB4"/>
<path d="M201.658 14.3432C201.658 13.2182 201.87 12.1694 202.292 11.197C202.715 10.2245 203.292 9.38554 204.022 8.68003C204.772 7.95545 205.627 7.39295 206.588 6.99252C207.568 6.57303 208.606 6.36329 209.702 6.36329C210.797 6.36329 211.825 6.57303 212.786 6.99252C213.766 7.39295 214.622 7.95545 215.352 8.68003C216.102 9.38554 216.688 10.2245 217.111 11.197C217.534 12.1694 217.745 13.2182 217.745 14.3432C217.745 15.4491 217.543 16.4883 217.14 17.4608C216.736 18.4332 216.169 19.2817 215.439 20.0063C214.727 20.7309 213.882 21.3029 212.902 21.7224C211.921 22.1419 210.855 22.3517 209.702 22.3517C208.548 22.3517 207.482 22.1419 206.501 21.7224C205.521 21.3029 204.666 20.7309 203.936 20.0063C203.225 19.2817 202.667 18.4332 202.264 17.4608C201.86 16.4883 201.658 15.4491 201.658 14.3432ZM205.521 14.3718C205.521 15.0391 205.627 15.6398 205.838 16.1737C206.069 16.7076 206.367 17.1652 206.732 17.5466C207.117 17.9279 207.559 18.2235 208.058 18.4332C208.577 18.643 209.125 18.7478 209.702 18.7478C210.278 18.7478 210.816 18.643 211.316 18.4332C211.835 18.2235 212.277 17.9279 212.642 17.5466C213.027 17.1652 213.324 16.7076 213.536 16.1737C213.766 15.6398 213.882 15.0391 213.882 14.3718C213.882 13.7235 213.776 13.1324 213.565 12.5985C213.372 12.0646 213.094 11.6069 212.729 11.2256C212.363 10.8252 211.921 10.5201 211.402 10.3103C210.884 10.0815 210.317 9.9671 209.702 9.9671C209.087 9.9671 208.52 10.0815 208.001 10.3103C207.482 10.5201 207.04 10.8252 206.674 11.2256C206.309 11.6069 206.021 12.0646 205.81 12.5985C205.617 13.1324 205.521 13.7235 205.521 14.3718Z" fill="#264EB4"/>
<path d="M224.598 6.76371H228.432V14.6864C228.432 16.0593 228.653 17.0985 229.095 17.804C229.556 18.4904 230.296 18.8336 231.315 18.8336C232.353 18.8336 233.093 18.5 233.535 17.8326C233.977 17.1461 234.198 16.1546 234.198 14.858V6.76371H238.032V14.858C238.032 17.2987 237.436 19.1578 236.245 20.4353C235.072 21.6938 233.429 22.3231 231.315 22.3231C230.296 22.3231 229.374 22.18 228.547 21.894C227.721 21.5889 227.01 21.1409 226.414 20.5497C225.837 19.9396 225.386 19.1769 225.059 18.2616C224.751 17.3273 224.598 16.2214 224.598 14.9438V6.76371Z" fill="#264EB4"/>
<path d="M245.603 27.5V6.76371H249.437V8.42261C250.821 7.04973 252.426 6.36329 254.252 6.36329C255.232 6.36329 256.164 6.5635 257.048 6.96392C257.932 7.34528 258.701 7.88871 259.355 8.59422C260.008 9.29973 260.527 10.1482 260.911 11.1398C261.296 12.1122 261.488 13.1896 261.488 14.3718C261.488 15.5349 261.286 16.6122 260.883 17.6038C260.498 18.5762 259.97 19.4152 259.297 20.1207C258.624 20.8262 257.846 21.3792 256.962 21.7796C256.078 22.161 255.145 22.3517 254.165 22.3517C253.185 22.3517 252.32 22.1896 251.571 21.8654C250.84 21.5222 250.129 21.0169 249.437 20.3495V27.5H245.603ZM253.473 18.8622C254.069 18.8622 254.617 18.7478 255.117 18.519C255.636 18.2902 256.078 17.9756 256.443 17.5752C256.808 17.1747 257.096 16.698 257.308 16.1451C257.519 15.5921 257.625 14.9915 257.625 14.3432C257.625 13.7139 257.529 13.1324 257.337 12.5985C257.144 12.0455 256.866 11.5688 256.5 11.1684C256.135 10.768 255.693 10.4533 255.174 10.2245C254.675 9.97664 254.108 9.8527 253.473 9.8527C252.858 9.8527 252.291 9.9671 251.772 10.1959C251.273 10.4057 250.831 10.7107 250.446 11.1112C250.081 11.4925 249.793 11.9597 249.581 12.5127C249.37 13.0466 249.264 13.6472 249.264 14.3146C249.264 15.001 249.37 15.6302 249.581 16.2023C249.812 16.7553 250.11 17.2319 250.475 17.6324C250.86 18.0137 251.302 18.3188 251.801 18.5476C252.32 18.7574 252.878 18.8622 253.473 18.8622Z" fill="#264EB4"/>
</svg>
